<svg id="Calque_1" data-name="Calque 1" xmlns="http://www.w3.org/2000/svg" viewBox="0 0 50 50"><title>Alola</title><circle cx="25" cy="25" r="6"/><path d="M25,5A20,20,0,1,0,45,25,20,20,0,0,0,25,5Zm7,11.55L35.61,13A1,1,0,0,1,37,14.39L33.45,18A1,1,0,0,1,32,16.55ZM24,9a1,1,0,0,1,2,0v5.05a1,1,0,1,1-2,0ZM13,13a1,1,0,0,1,1.41,0L18,16.55A1,1,0,1,1,16.55,18L13,14.39A1,1,0,0,1,13,13ZM9,26a1,1,0,0,1,0-2h5.05a1,1,0,1,1,0,2Zm9,7.45L14.39,37A1,1,0,0,1,13,35.61L16.55,32A1,1,0,0,1,18,33.45ZM26,41a1,1,0,0,1-2,0V35.95a1,1,0,0,1,2,0Zm-1-8a8,8,0,1,1,8-8A8,8,0,0,1,25,33Zm12,4a1,1,0,0,1-1.41,0L32,33.45A1,1,0,0,1,33.45,32L37,35.61A1,1,0,0,1,37,37Zm4-11H35.95a1,1,0,0,1,0-2H41a1,1,0,0,1,0,2Z"/></svg>