<svg id="Calque_1" data-name="Calque 1" xmlns="http://www.w3.org/2000/svg" viewBox="0 0 50 50"><title>Female</title><path d="M28.48,15.19a5.73,5.73,0,0,0-4.62-1,5.47,5.47,0,0,0-1.3,10.29,5.72,5.72,0,0,0,6.5-1A5.4,5.4,0,0,0,28.48,15.19Z"/><path d="M25,5A20,20,0,1,0,45,25,20,20,0,0,0,25,5Zm2,25.15c0,.08,0,3.43,0,3.61h3.68a.67.67,0,0,1,.67.66c0,.61,0,1.53,0,2.14a.66.66,0,0,1-.67.66H27c0,.13,0,2.57,0,3.78a.67.67,0,0,1-.67.67H23.83a.67.67,0,0,1-.67-.67c0-1.21,0-3.65,0-3.78H19.47a.66.66,0,0,1-.67-.66c0-.62,0-1.53,0-2.14a.67.67,0,0,1,.67-.66h3.68c0-.18,0-3.53,0-3.61-8.21-1.78-11-10.12-7.48-16a11,11,0,0,1,18.85,0C38,20,35.26,28.37,27,30.15Z"/></svg>