<svg id="Calque_1" data-name="Calque 1" xmlns="http://www.w3.org/2000/svg" viewBox="0 0 50 50"><title>Male</title><path d="M25,5A20,20,0,1,0,45,25,20,20,0,0,0,25,5ZM37.79,21.11l-2.94,2.94a.59.59,0,0,1-.69.21.6.6,0,0,1-.33-.65c0-1.25,0-2.5,0-3.75v-.29l-3.64,3.64A9.68,9.68,0,0,1,31.25,31a9.55,9.55,0,0,1-4,5.5A9.82,9.82,0,1,1,27,20l3.67-3.67H26.56a.6.6,0,0,1-.65-.34.59.59,0,0,1,.22-.69l2.94-2.94A1.25,1.25,0,0,1,30,12h7a1.1,1.1,0,0,1,1.2,1.21c0,2.32,0,4.64,0,7A1.25,1.25,0,0,1,37.79,21.11Z"/><circle cx="21.81" cy="28.37" r="5.46"/></svg>