<svg id="Calque_1" data-name="Calque 1" xmlns="http://www.w3.org/2000/svg" viewBox="0 0 50 50"><title>Mega</title><path d="M17.24,19.66a66.68,66.68,0,0,0,15.52,6.81,11.3,11.3,0,0,0,1.4.21,7,7,0,0,0-3-3.41q-6.25-3-12.47-6.11c-1.21-.6-1.75-.45-2.46.82S16.67,19.31,17.24,19.66Z"/><path d="M25.77,37.21c.07.2.5.47.64.42a14.63,14.63,0,0,0,4.66-3L23.95,32C24.62,33.93,25.17,35.58,25.77,37.21Z"/><path d="M26,17.89l.26-.33c-.54-1.56-1.05-3.13-1.64-4.67-.08-.22-.59-.5-.74-.43-1.24.57-2.45,1.23-3.67,1.85l0,.55Z"/><path d="M33.19,29.68A85.31,85.31,0,0,1,17,22.82c-.44-.24-.9-.44-1.51-.72a3.3,3.3,0,0,0,1.45,3.06,78.48,78.48,0,0,0,15.57,6.68c1,.29,1.47-.16,1.76-1C34.64,29.81,33.73,29.85,33.19,29.68Z"/><path d="M25,5A20,20,0,1,0,45,25,20,20,0,0,0,25,5ZM35.75,34.08C32.68,37.9,28.46,40,24,41.65a2.41,2.41,0,0,1-.65,0,30.08,30.08,0,0,0-.19-3.07,12.58,12.58,0,0,0-4.59-7.81,28.43,28.43,0,0,1-4.1-4.06c-3-3.8-2.79-8,.54-11.53s7.45-5.44,11.93-6.84a1.3,1.3,0,0,1,.46,0c.06.14.14.22.12.29-1.32,5.18,1.68,8.52,4.95,11.79a29.48,29.48,0,0,1,3.76,4.19A7.59,7.59,0,0,1,35.75,34.08Z"/></svg>